Coordinates
version=1
nRows=14
nColumns=36
inDegrees=yes

Units are S.I. units (second, meters, Newtons, ...)
If the header above contains a line with 'inDegrees', this indicates whether rotational values are in degrees (yes) or radians (no).

endheader
time	pelvis_tilt	pelvis_list	pelvis_rotation	pelvis_tx	pelvis_ty	pelvis_tz	hip_flexion_r	hip_adduction_r	hip_rotation_r	knee_angle_r	knee_angle_r_beta	ankle_angle_r	subtalar_angle_r	mtp_angle_r	hip_flexion_l	hip_adduction_l	hip_rotation_l	knee_angle_l	knee_angle_l_beta	ankle_angle_l	subtalar_angle_l	mtp_angle_l	lumbar_extension	lumbar_bending	lumbar_rotation	arm_flex_r	arm_add_r	arm_rot_r	elbow_flex_r	pro_sup_r	arm_flex_l	arm_add_l	arm_rot_l	elbow_flex_l	pro_sup_l
      1.25000000	    -10.76434692	     -4.85367625	      2.43408665	     -0.72189399	      1.55431457	     -0.59714677	     26.43383352	     -1.08617279	     -5.67988853	     49.82340337	      0.86958243	     -6.98875014	     -7.01897847	     -7.45828298	     29.40290969	     -8.36564755	     -0.12584701	     58.78542878	      1.02599928	    -15.77075168	    -20.25212234	     -7.45828298	    -10.09503411	      4.12365134	     -3.55299248	    -14.13840351	    -51.66936565	     -8.03967028	    108.43428111	     72.39019417	      7.05383694	    -48.63296983	     -0.14527002	    112.31231250	     75.76681480
      1.26000000	    -10.37350019	     -4.70594543	      2.21489286	     -0.71127476	      1.55420381	     -0.59613240	     26.43068296	     -1.41225006	     -5.71224702	     49.32112562	      0.86081603	     -7.82816132	     -6.22343909	     -7.45937477	     29.98401533	     -8.64659188	     -0.53792587	     59.19712378	      1.03318472	    -17.24744105	    -18.86138296	     -7.45937477	    -10.50438944	      3.73380767	     -3.46000147	    -15.48372892	    -52.05005268	     -8.11408419	    107.33144168	     72.22394917	      5.91500230	    -49.27497849	     -0.35733085	    111.56463106	     75.55428376
      1.27000000	    -10.10066297	     -4.51972743	      1.92401263	     -0.70160748	      1.55362718	     -0.59539452	     26.46621481	     -1.71821582	     -5.60536096	     48.39901627	      0.84472219	     -8.12651970	     -5.75112920	     -7.46058844	     30.73604488	     -8.75493515	     -0.86518000	     59.64627341	      1.04102386	    -17.96561011	    -19.05605958	     -7.46058844	    -11.79435526	      3.45507498	     -3.26247885	    -18.97987428	    -51.82838642	    -11.30181157	    107.68364710	     72.05165034	      2.71673641	    -49.40111189	     -3.48250265	    112.99736496	     75.23583741
      1.28000000	     -9.83423988	     -4.27153563	      1.72215328	     -0.69415797	      1.55299601	     -0.59528526	     26.68733038	     -2.16001507	     -5.58183809	     47.56138461	      0.83010276	     -7.77283368	     -5.13801286	     -7.46314916	     31.78557929	     -8.74126663	     -1.20086155	     60.24333519	      1.05144455	    -15.77675435	    -17.79212838	     -7.46314916	    -13.00381982	      3.07872710	     -3.19407877	    -21.45138904	    -51.68039917	    -13.18457963	    107.60296525	     71.85141186	      0.62473566	    -49.68238569	     -5.36361281	    113.30615369	     74.58510537
      1.29000000	     -9.73839115	     -4.01395783	      1.47424055	     -0.68842328	      1.55218130	     -0.59517323	     27.30304501	     -2.58892255	     -5.50477948	     46.75645966	      0.81605417	     -7.22741677	     -4.43695412	     -7.46525800	     33.07408844	     -8.63354815	     -1.56801375	     60.33477774	      1.05304053	    -12.52085198	    -16.40502101	     -7.46525800	    -14.21254922	      2.60547524	     -3.04640390	    -23.25921904	    -51.48073871	    -14.42623678	    106.92948987	     71.67856212	     -0.88098186	    -50.06484817	     -6.68683018	    113.63718473	     73.99503459
      1.30000000	     -9.58538546	     -3.84402148	      1.26879129	     -0.68193799	      1.55080348	     -0.59463661	     27.71207768	     -2.84149205	     -5.45897295	     45.47063756	      0.79361234	     -7.02597299	     -3.78221200	     -7.46700878	     33.88763810	     -8.61923574	     -1.86435950	     59.40865636	      1.03687666	    -10.04837987	    -15.22244236	     -7.46700878	    -15.50277084	      2.32658375	     -2.89451120	    -25.10745381	    -51.18456404	    -15.87158481	    106.56549088	     71.67965642	     -2.54170263	    -50.21590095	     -8.31436411	    113.91283991	     73.37324500
      1.31000000	     -9.56680969	     -3.66688822	      1.12569721	     -0.67280605	      1.54738670	     -0.59376475	     27.89605480	     -3.02809333	     -5.45395115	     43.53630058	      0.75985179	     -7.18109004	     -3.02839441	     -7.46778765	     34.16678427	     -8.69527994	     -2.14087311	     57.57285287	      1.00483584	     -9.37868850	    -14.56717522	     -7.46778765	    -15.96208071	      1.92628511	     -2.84521832	    -26.68092350	    -51.11855574	    -16.22883322	    105.43742238	     71.62498433	     -3.68394203	    -50.45647605	     -8.90120629	    113.53794168	     73.10892642
      1.32000000	     -9.28658901	     -3.49703974	      0.96650469	     -0.66250654	      1.54197279	     -0.59277739	     27.66384088	     -3.19671942	     -5.51566222	     41.39233805	      0.72243258	     -7.58076652	     -2.24575536	     -7.46877388	     33.83057588	     -8.91034615	     -2.52524880	     55.48796536	      0.96844769	     -8.96095097	    -13.59136712	     -7.46877388	    -16.89885516	      1.58612536	     -2.75752233	    -28.92412691	    -50.39011809	    -17.96542062	    105.22647833	     71.78851510	     -5.59645017	    -50.34546732	    -10.81619310	    114.12938122	     72.53945888
      1.33000000	     -9.27213603	     -3.37678430	      0.85977728	     -0.65272333	      1.53505417	     -0.59191506	     27.80246885	     -3.42585646	     -5.75207368	     39.43018512	      0.68818656	     -8.42758313	     -1.85556928	     -7.46981342	     33.85882631	     -9.09208149	     -2.85991562	     53.47053708	      0.93323692	     -8.71960896	    -12.97256131	     -7.46981342	    -17.25045858	      1.33149742	     -2.85721760	    -31.03574552	    -49.88408830	    -18.99891358	    104.79099598	     72.01790666	     -7.33076158	    -50.26485672	    -12.15973474	    114.14794323	     71.94895704
      1.34000000	     -9.22684238	     -3.30949684	      0.78409406	     -0.64385445	      1.52876758	     -0.59136757	     27.88389392	     -3.65716737	     -6.11055147	     37.48760513	      0.65428214	     -9.22811344	     -1.56162962	     -7.47071098	     33.79319934	     -9.28441218	     -3.21612725	     51.14644151	      0.89267380	     -8.57680285	    -12.50619245	     -7.47071098	    -17.64049857	      1.13358556	     -2.99103410	    -33.04172482	    -49.19790395	    -19.88880127	    104.20455445	     72.28621068	     -8.97361966	    -50.06959243	    -13.49957608	    114.11798162	     71.41708925
      1.35000000	     -9.24452893	     -3.29032342	      0.74887783	     -0.63551908	      1.52237585	     -0.59159790	     27.88405106	     -3.86632293	     -6.57388626	     35.40755260	      0.61797837	     -9.81813282	     -1.14921826	     -7.47119555	     33.60939989	     -9.46897878	     -3.54551321	     48.38348458	      0.84445111	     -8.62582445	    -12.02231546	     -7.47119555	    -17.91743407	      0.97959288	     -3.13576175	    -34.83079295	    -48.56832888	    -20.41175610	    103.38783862	     72.51698338	    -10.36063928	    -49.88816691	    -14.52359637	    113.88926193	     71.08013112
      1.36000000	     -9.43152535	     -3.25495031	      0.76048952	     -0.62731563	      1.51345720	     -0.59220478	     28.01807090	     -4.09229416	     -7.00555670	     33.34689202	      0.58201306	    -10.34369110	     -0.65672493	     -7.47115176	     33.63018417	     -9.52592261	     -3.71167520	     45.61620770	      0.79615302	     -8.65263077	    -11.42596505	     -7.47115176	    -17.99785403	      0.81849419	     -3.22422425	    -36.49419668	    -48.35893664	    -20.45196984	    102.65439643	     72.62394508	    -11.49444989	    -50.06667955	    -14.90023950	    113.64526346	     71.01193873
      1.37000000	     -9.39733612	     -3.03336725	      0.73431391	     -0.61756427	      1.50224946	     -0.59192351	     27.91545109	     -4.46913237	     -7.33324301	     31.38676191	      0.54780234	    -10.74735646	      0.20780701	     -7.47650650	     33.42847598	     -9.44163742	     -4.04896144	     43.07435313	      0.75178929	     -8.01607727	     -9.95842841	     -7.47650650	    -18.67936170	      0.48191147	     -3.99610542	    -37.39113607	    -48.27775502	    -20.66109192	    102.20764142	     74.94559775	    -14.95356902	    -49.80270465	    -18.32612222	    114.60373959	     68.22828630
      1.38000000	     -9.40636001	     -2.79793467	      0.77546341	     -0.60521381	      1.48996375	     -0.59073807	     27.73493305	     -4.82474453	     -7.55736339	     29.41697329	      0.51342304	    -11.19558476	      1.11425378	     -7.47694099	     33.16705019	     -9.30264268	     -4.32343983	     40.52555557	      0.70730438	     -7.76013603	     -8.82883682	     -7.47694099	    -18.93866969	      0.10929639	     -4.00510126	    -39.74138765	    -47.73659983	    -21.46033645	    102.03248442	     75.07584198	    -16.76546469	    -49.93492184	    -19.43200424	    115.00828993	     68.18630268
